Coordinates
version=1
nRows=19
nColumns=36
inDegrees=yes

Units are S.I. units (second, meters, Newtons, ...)
If the header above contains a line with 'inDegrees', this indicates whether rotational values are in degrees (yes) or radians (no).

endheader
time	pelvis_tilt	pelvis_list	pelvis_rotation	pelvis_tx	pelvis_ty	pelvis_tz	hip_flexion_r	hip_adduction_r	hip_rotation_r	knee_angle_r	knee_angle_r_beta	ankle_angle_r	subtalar_angle_r	mtp_angle_r	hip_flexion_l	hip_adduction_l	hip_rotation_l	knee_angle_l	knee_angle_l_beta	ankle_angle_l	subtalar_angle_l	mtp_angle_l	lumbar_extension	lumbar_bending	lumbar_rotation	arm_flex_r	arm_add_r	arm_rot_r	elbow_flex_r	pro_sup_r	arm_flex_l	arm_add_l	arm_rot_l	elbow_flex_l	pro_sup_l
      3.43333330	    -29.94841051	     -9.85392805	      3.38258103	      1.55176456	      0.69386786	      0.10032510	     78.15061482	     12.56757419	     -9.10313074	     79.54624228	      1.38834384	     41.78796737	     -0.50316044	     -7.49999987	    103.05490700	    -12.47529149	     19.49406751	     47.58937838	      0.83059134	      1.76539779	    -10.22133591	     -7.49999987	     -4.75787735	     13.80078547	     10.80974139	     52.78010028	     -8.12917342	     74.00222976	    116.25178233	     94.23868841	     55.65168885	      3.86931376	     69.53420807	    107.06992633	    107.21495204
      3.45000000	    -30.37043456	     -9.90040450	      3.04082614	      1.55532204	      0.69106939	      0.09731354	     78.75829304	     12.73315357	     -9.26777164	     79.94917988	      1.39537642	     42.28750924	     -0.15352942	     -7.49999987	    103.54370004	    -12.57265556	     19.85100625	     47.93535857	      0.83662984	      2.22379719	    -10.19144432	     -7.49999987	     -4.34152721	     13.89542486	     10.86370291	     52.21189425	     -8.17959853	     74.71734465	    116.84038714	     94.52206746	     54.97208797	      4.12569745	     70.18170191	    107.06743366	    107.59039742
      3.46666670	    -30.72358153	     -9.91698029	      2.81291133	      1.55413430	      0.68968053	      0.09633821	     79.28196708	     12.79314366	     -9.38369108	     80.28074406	      1.40116331	     42.56837777	     -0.18565817	     -7.49999987	    103.87893479	    -12.57889350	     20.13148429	     48.25213427	      0.84215861	      2.53439145	    -10.37852878	     -7.49999987	     -3.91483055	     13.94057032	     10.88971614	     51.92638834	     -8.53425572	     75.45572126	    117.21801079	     93.72059361	     54.55903833	      4.35916764	     70.49911406	    107.15197163	    107.14370913
      3.48333330	    -31.09749193	     -9.96369833	      2.47587535	      1.55485677	      0.68501293	      0.09770066	     79.90753226	     12.95922613	     -9.56181049	     80.67459283	      1.40803727	     42.88642614	      0.06116228	     -7.49999987	    104.44367211	    -12.62735133	     20.47834548	     48.66280932	      0.84932625	      2.78430795	    -10.53520838	     -7.49999987	     -3.21679237	     13.92564378	     10.99046529	     51.80490543	     -8.63356998	     75.97451785	    117.39450413	     93.32452107	     54.37269379	      4.73206677	     70.46797883	    107.13694182	    106.71983266
      3.50000000	    -31.39294429	     -9.93021522	      2.20577295	      1.55413753	      0.68424221	      0.09752516	     80.41617716	     13.02158129	     -9.69150153	     81.05676804	      1.41470748	     43.21383651	      0.34989622	     -7.49999987	    104.84890685	    -12.59236565	     20.74995213	     48.99364103	      0.85510035	      2.99865618	    -10.78820765	     -7.49999987	     -2.70947120	     13.88670689	     11.02392969	     51.64984056	     -8.60754290	     75.79357294	    116.99528637	     92.06660360	     54.43664375	      4.72769756	     70.57821661	    107.19949642	    106.26146569
      3.51666670	    -31.87161011	     -9.89837140	      1.93208088	      1.55447744	      0.68113746	      0.09775333	     81.13613107	     13.08311659	     -9.79528625	     81.45434881	      1.42164658	     43.28043720	      0.24208430	     -7.49999987	    105.47300850	    -12.54902797	     20.92483911	     49.29999750	      0.86044728	      3.29534619	    -10.78193233	     -7.49999987	     -1.85221122	     13.78054538	     11.02400380	     51.43514930	     -8.17676493	     75.72109520	    116.74254943	     95.83894666	     54.19394391	      4.74706174	     70.09143057	    107.36847164	    109.61610576
      3.53333330	    -31.99600937	     -9.86223578	      1.75802786	      1.55366574	      0.68067758	      0.09747912	     81.49286122	     13.14712821	     -9.86452745	     81.80864129	      1.42783015	     43.45627948	      0.33022902	     -7.49999987	    105.80062249	    -12.46276628	     20.96255981	     49.65147506	      0.86658172	      3.55878176	    -10.80630170	     -7.49999987	     -1.63476886	     13.74736623	     11.12756782	     51.61891756	     -8.02459567	     75.90463425	    116.88743021	     92.57615932	     54.52745569	      4.63559258	     70.33011210	    107.54376607	    106.06998850
      3.55000000	    -32.30441116	     -9.88482926	      1.54178949	      1.55416997	      0.68278136	      0.09836073	     81.94550240	     13.24305633	     -9.94504459	     81.85661053	      1.42866737	     43.26251603	      0.10007240	     -7.49999987	    106.23396271	    -12.43999262	     20.96592822	     49.76870230	      0.86862772	      3.66994553	    -10.71957878	     -7.49999987	     -1.06238989	     13.63631408	     11.15416728	     51.31583581	     -7.89043138	     75.42775035	    116.64432577	     96.73845615	     54.30626340	      4.26626302	     69.52188657	    107.24803029	    109.02509066
      3.56666670	    -32.45719314	     -9.84586558	      1.33778932	      1.55365320	      0.68485264	      0.09844973	     82.13433691	     13.35966492	     -9.93645710	     81.78846176	      1.42747795	     43.17769003	      0.04579070	     -7.49999987	    106.41320965	    -12.40495455	     20.90377635	     49.82443161	      0.86960038	      3.74933079	    -10.59969525	     -7.49999987	     -0.67732868	     13.42490383	     11.13291639	     51.46231316	     -7.56152107	     74.87103792	    116.78061937	     96.51418482	     54.53779029	      3.93550630	     68.80992644	    107.58284824	    108.98450930
      3.58333330	    -32.48469291	     -9.82640105	      1.26883647	      1.55453182	      0.68503580	      0.09895980	     82.11343810	     13.46267746	     -9.85155587	     81.64569683	      1.42498623	     43.13681597	     -0.01948250	     -7.49999987	    106.47037813	    -12.39879801	     20.75696828	     49.84162398	      0.86990044	      3.68791118	    -10.48219000	     -7.49999987	     -0.18052048	     13.30687896	     10.89465047	     51.50263154	     -7.03758211	     74.34036224	    117.02458441	     95.49704822	     54.48335819	      3.82538414	     68.27120188	    108.18605529	    108.25494475
      3.60000000	    -32.34573692	     -9.90097120	      1.31160834	      1.55877904	      0.68820747	      0.10067826	     81.87477718	     13.57683282	     -9.82376543	     81.46053701	      1.42175458	     43.12461629	      0.00663167	     -7.49999987	    106.35435531	    -12.32555673	     20.70983865	     49.87811023	      0.87053725	      3.64809469	    -10.46064856	     -7.49999987	      0.30216455	     13.18662862	     10.94822320	     51.62707952	     -6.96181832	     74.24073002	    117.09477434	     95.50331297	     54.58531595	      3.85574146	     68.17795707	    108.33098663	    108.25133793
      3.61666670	    -32.38878619	     -9.82455800	      1.18098309	      1.55851396	      0.69384483	      0.09687889	     81.60044327	     13.64350503	     -9.55834119	     80.97040167	      1.41320011	     43.09779783	      0.03586533	     -7.49999987	    106.20584537	    -12.25987502	     20.57099650	     49.56963350	      0.86515331	      3.64443909	    -10.32000346	     -7.49999987	      0.55555289	     13.16301933	     10.68029922	     51.69611456	     -7.24458317	     74.08633496	    117.34801894	     95.54408487	     54.36936848	      3.86731505	     68.07356553	    108.73382769	    108.25715338
      3.63333330	    -32.30708372	     -9.70540276	      1.21561276	      1.55732516	      0.69317633	      0.09584056	     81.42304159	     13.53721873	     -9.31425240	     80.85326557	      1.41115570	     42.90749977	     -0.00628126	     -7.49999987	    106.06954673	    -12.04132422	     20.35828560	     49.46495932	      0.86332640	      3.73099219	     -9.90584983	     -7.49999987	      0.82088730	     13.15008685	     10.31782537	     52.06308899	     -7.14740735	     73.36585314	    117.92138784	     96.67358352	     54.37329056	      3.65780825	     66.90873569	    109.85245552	    109.08901394
      3.65000000	    -32.23368846	     -9.74177638	      1.24051153	      1.56242756	      0.69948235	      0.09782739	     80.90002333	     13.72780921	     -9.03261109	     80.31522541	      1.40176512	     42.93980072	      0.02850115	     -7.49999987	    105.79997029	    -11.84191412	     20.42493210	     49.39904168	      0.86217592	      3.80269281	     -9.80786948	     -7.49999987	      1.18169621	     13.01523677	     10.14850118	     51.68122867	     -7.13111881	     73.41414091	    117.92560979	     96.69904941	     54.07417618	      3.60441260	     66.96137017	    110.09166170	    109.07359856
      3.66666670	    -31.79962441	     -9.94225868	      1.43479141	      1.56271872	      0.70894708	      0.10171665	     79.81642077	     13.98115761	     -8.87036664	     79.35554920	      1.38501561	     42.68423364	     -0.14605599	     -7.49999987	    105.12239983	    -11.85974972	     20.43873881	     49.02311168	      0.85561471	      3.75183711	     -9.37351176	     -7.49999987	      1.02177723	     13.15548488	      9.52979308	     51.50757854	     -6.29108665	     73.32121570	    116.69749800	     96.51608542	     53.53367608	      2.72790079	     66.31056851	    110.40823284	    108.06591472
      3.68333330	    -31.35995476	     -9.95132791	      1.59867203	      1.56382323	      0.70979521	      0.10188546	     78.87377732	     14.08468172	     -8.70130874	     78.64812528	      1.37266874	     42.46032739	     -0.01641047	     -7.49999987	    104.50282273	    -11.91026006	     20.41084542	     48.78017625	      0.85137469	      3.62494338	     -9.43346968	     -7.49999987	      1.12961395	     12.84673501	      9.35369502	     51.23793207	     -5.98740958	     73.17036514	    117.20509428	     96.64913745	     53.95011703	      3.00222918	     67.23299034	    111.01716064	    109.02097562
      3.70000000	    -30.87706208	     -9.99983741	      1.96199869	      1.56823652	      0.71589086	      0.10294032	     77.77786676	     14.17681125	     -8.44821934	     77.91614138	      1.35989321	     42.19493822	     -0.22900245	     -7.49999987	    103.76751340	    -11.76387087	     20.44512221	     48.63866604	      0.84890487	      3.67561504	     -9.39044489	     -7.49999987	      1.31187674	     12.62049977	      8.88811841	     50.71124746	     -5.61629364	     73.17627229	    117.30898340	     96.85503879	     53.77832191	      2.70662393	     67.60140571	    111.15479700	    108.89318773
      3.71666670	    -30.57709282	     -9.92106904	      2.21381198	      1.56425937	      0.71798669	      0.10082755	     77.17952062	     14.02523556	     -8.26997514	     77.53407845	      1.35322495	     41.91923592	     -0.29284299	     -7.49999987	    103.32050921	    -11.56030735	     20.37021124	     48.55020042	      0.84736085	      3.66033388	     -9.26614526	     -7.49999987	      1.45815191	     12.36025484	      8.42538166	     51.41381236	     -5.62622422	     72.55330093	    117.94131895	     97.01430954	     54.28770162	      2.65811303	     67.23541543	    112.08373371	    108.75686757
      3.73333330	    -30.16832338	    -10.01790479	      2.50347828	      1.56868398	      0.72602953	      0.10241806	     76.26980777	     14.13831326	     -8.03486956	     76.70779744	      1.33880363	     41.43850464	     -0.38249493	     -7.49999987	    102.62973489	    -11.52733128	     20.25877845	     48.12762521	      0.83998552	      3.50220698	     -9.11063607	     -7.49999987	      1.58713442	     12.23396040	      7.97170765	     51.32655339	     -5.14053124	     72.35684532	    117.98521541	     97.00798939	     54.11021270	      2.78849840	     67.54967267	    112.01259517	    108.61091317
